# xmcd CD database file
#
# Track frame offsets:
#	150
#	23398
#	37303
#	52852
#	71889
#	88586
#	105937
#	123043
#	139445
#	154624
#	170039
#	188940
#	202537
#	218844
#	235810
#	255835
#	270030
#	287193
#	303411
#	318568
#
# Disc length: 4518 seconds
#
# Revision: 0
# Processed by: cddbd v1.5.2PL0 Copyright (c) Steve Scherf et al.
# Submitted via: CDex 1.51
#
DISCID=0b11a414
DTITLE=The Real Book Play-Along - Volume I E-K CD2
DYEAR=1900
DGENRE=Jazz
TTITLE0=God Bless' the Child
TTITLE1=Groovin' High
TTITLE2=Guilty
TTITLE3=Gypsy in My Soul
TTITLE4=Half Nelson
TTITLE5=Have You Met Miss Jones?
TTITLE6=Hello, Young Lovers
TTITLE7=Here's That Rainy Day
TTITLE8=Hot Toddy
TTITLE9=How High The Moonh
TTITLE10=How Insensitive (Insensatez)
TTITLE11=I Can't Get Started With You
TTITLE12=I Can't Give You Anything but Love
TTITLE13=I Could Write a Book
TTITLE14=I Got it Bad and That Ain't Good
TTITLE15=I Let a Sont Go Out of My Heart
TTITLE16=I Love Paris
TTITLE17=I Love You
TTITLE18=I Mean You
TTITLE19=I Remember Clifford
EXTD=
EXTT0=
EXTT1=
EXTT2=
EXTT3=
EXTT4=
EXTT5=
EXTT6=
EXTT7=
EXTT8=
EXTT9=
EXTT10=
EXTT11=
EXTT12=
EXTT13=
EXTT14=
EXTT15=
EXTT16=
EXTT17=
EXTT18=
EXTT19=
PLAYORDER=
